<svg width="64.000000" height="73.000000" viewBox="0 0 64 73" fill="none" xmlns="http://www.w3.org/2000/svg" xmlns:xlink="http://www.w3.org/1999/xlink">
	<desc>
			Created with Pixso.
	</desc>
	<defs/>
	<path id="Vector" d="M0 45.6967C2.15991 45.582 3.98755 44.626 5.48288 42.8287C6.97818 41.0315 7.74246 38.89 7.74246 36.4044C7.74246 38.89 8.47351 41.0315 9.96884 42.8287C11.4642 44.626 13.2918 45.582 15.4517 45.6967C13.2918 45.8114 11.4642 46.7675 9.96884 48.5647C9.24591 49.412 8.67673 50.4164 8.29449 51.5193C7.91226 52.6223 7.72461 53.8018 7.74246 54.989C7.74246 52.5034 7.01141 50.3619 5.48288 48.5647C3.98755 46.7675 2.15991 45.8114 0 45.6967ZM7.74246 18.1639C11.9294 17.9346 15.485 16.0608 18.4091 12.5427C21.3333 9.02466 22.7954 4.85645 22.7954 0C22.7954 4.85645 24.2575 9.02466 27.1817 12.5427C30.1059 16.0608 33.6615 17.8962 37.8816 18.1639C35.1236 18.3169 32.5981 19.1964 30.2721 20.879C27.9792 22.5233 26.1516 24.7412 24.7892 27.4945C23.46 30.2478 22.7954 33.1923 22.7954 36.4044C22.7954 31.548 21.3333 27.3416 18.4091 23.8235C15.485 20.2672 11.9294 18.3934 7.74246 18.1639ZM18.7747 59.3484C21.9315 59.1954 24.623 57.7805 26.8162 55.142C29.0093 52.5034 30.1059 49.3677 30.1059 45.6967C30.1059 49.3677 31.2025 52.5034 33.3956 55.142C35.5888 57.7805 38.2471 59.1954 41.404 59.3484C38.2471 59.5013 35.5888 60.9161 33.3956 63.5547C31.2025 66.1934 30.1059 69.329 30.1059 73C30.1059 69.329 29.0093 66.1934 26.8162 63.5547C24.7201 60.9912 21.8313 59.4801 18.7747 59.3484ZM41.404 41.2227C44.5608 41.0697 47.2191 39.6548 49.4123 37.0162C51.6054 34.3777 52.6688 31.2421 52.6688 27.5327C52.6688 31.2037 53.7653 34.3395 55.9585 36.978C58.1516 39.6166 60.8432 41.0314 64 41.1844C60.8432 41.3374 58.1516 42.7522 55.9585 45.3907C53.7653 48.0293 52.6688 51.165 52.6688 54.8361C52.6688 51.165 51.5722 48.0293 49.4123 45.3907C47.2191 42.7905 44.5608 41.3756 41.404 41.2227Z" fill="#FFFFFF" fill-opacity="1.000000" fill-rule="nonzero"/>
</svg>
